<?xml version="1.0" encoding="UTF-8" standalone="no"?>
<!-- Created with Inkscape (http://www.inkscape.org/) -->

<svg
   xmlns:dc="http://purl.org/dc/elements/1.1/"
   xmlns:cc="http://creativecommons.org/ns#"
   xmlns:rdf="http://www.w3.org/1999/02/22-rdf-syntax-ns#"
   xmlns:svg="http://www.w3.org/2000/svg"
   xmlns="http://www.w3.org/2000/svg"
   xmlns:sodipodi="http://sodipodi.sourceforge.net/DTD/sodipodi-0.dtd"
   xmlns:inkscape="http://www.inkscape.org/namespaces/inkscape"
   width="58"
   height="55"
   id="svg2"
   version="1.1"
   inkscape:version="0.48.4 r9939"
   sodipodi:docname="Neues Dokument 1">
  <defs
     id="defs4" />
  <sodipodi:namedview
     id="base"
     pagecolor="#ffffff"
     bordercolor="#666666"
     borderopacity="1.0"
     inkscape:pageopacity="0.0"
     inkscape:pageshadow="2"
     inkscape:zoom="1.979899"
     inkscape:cx="52.687055"
     inkscape:cy="21.643873"
     inkscape:document-units="px"
     inkscape:current-layer="layer1"
     showgrid="false"
     inkscape:window-width="931"
     inkscape:window-height="662"
     inkscape:window-x="24"
     inkscape:window-y="24"
     inkscape:window-maximized="0" />
  <metadata
     id="metadata7">
    <rdf:RDF>
      <cc:Work
         rdf:about="">
        <dc:format>image/svg+xml</dc:format>
        <dc:type
           rdf:resource="http://purl.org/dc/dcmitype/StillImage" />
        <dc:title></dc:title>
      </cc:Work>
    </rdf:RDF>
  </metadata>
  <g
     inkscape:label="Ebene 1"
     inkscape:groupmode="layer"
     id="layer1"
     transform="translate(0,-997.36218)">
    <path
       style="fill:#000000"
       d="m 33.844164,1048.4273 -3.1958,-5.1938 2.53893,-4.5426 c 2.80591,-5.0204 4.37849,-6.5003 4.37849,-4.1206 0,1.2901 1.47001,1.559 8.52023,1.559 l 8.52023,0 -2.97107,5.2022 c -4.49018,7.862 -5.55244,8.7978 -9.98628,8.7978 -2.95045,0 -4.02068,0.4374 -4.2727,1.746 -0.23474,1.2189 -1.30087,0.1781 -3.53203,-3.448 z m -23.05064,0.452 c -1.2897704,-1.585 -7.2277404,-11.6852 -7.2277404,-12.294 0,-0.2508 5.175,-0.456 11.5000004,-0.456 l 11.5,0 0,7 0,7 -7.37756,0 c -4.69289,0 -7.74769,-0.4548 -8.3947,-1.25 z m -8.5908004,-16.2559 c -2.66922998,-2.6692 -2.89917998,-5.3844 -0.7627,-9.0055 1.88919,-3.2019 1.91211,-3.5115 0.32837,-4.435 -1.26134998,-0.7355 -0.10506,-1.0006 4.46162,-1.0232 l 6.1642204,-0.03 3.12582,5.0801 c 2.66445,4.3303 2.84193,4.99 1.20245,4.4697 -1.46283,-0.4643 -2.42209,0.2348 -4.00631,2.9199 -1.74622,2.9596 -2.64269,3.5303 -5.5452604,3.5303 -1.90426,0 -4.13996,-0.6776 -4.96821,-1.5059 z m 43.7721104,-0.2441 c -0.58962,-0.9625 -2.25916,-3.7911 -3.7101,-6.2859 l -2.63807,-4.5359 5.88427,-3.2349 5.88426,-3.2349 3.0853,5.3926 c 3.52151,6.1549 3.88412,9.6161 1.25655,11.994 -2.45916,2.2256 -8.37594,2.168 -9.76221,-0.095 z m -31.16133,-17.572 c -2.88625,-1.738 -5.2477204,-3.5593 -5.2477204,-4.0472 0,-0.488 1.3559704,-3.2573 3.0132704,-6.154 4.28854,-7.49554 9.46381,-8.25685 13.56632,-1.9956 1.5013,2.2912 1.39711,2.7231 -2.10235,8.7148 -2.02506,3.4672 -3.74941,6.3801 -3.83187,6.473 -0.0825,0.093 -2.51141,-1.253 -5.39765,-2.991 z m 17.92835,-0.9832 c 1.5345,-1.1967 1.34446,-1.8787 -2.25,-8.0746 -2.15934,-3.7221 -3.92607,-6.97824 -3.92607,-7.23587 0,-0.25763 3.47481,-0.33699 7.72181,-0.17635 l 7.7218,0.29206 2.05273,3.66596 c 1.70724,3.0489 2.35516,3.4966 3.84963,2.6603 1.37236,-0.768 1.07753,0.256 -1.24784,4.3341 l -3.04475,5.3396 -6.27669,0.251 c -5.328,0.2131 -6.02336,0.053 -4.60062,-1.0562 z"
       id="path2998"
       inkscape:connector-curvature="0" />
  </g>
</svg>
